<?xml version="1.0"?>
<svg fill="#ffad1c" xmlns="http://www.w3.org/2000/svg" xmlns:xlink="http://www.w3.org/1999/xlink" xmlns:svgjs="http://svgjs.com/svgjs" version="1.1" width="100" height="100" x="0" y="0" viewBox="0 0 512 512" style="enable-background:new 0 0 512 512" xml:space="preserve" class=""><g><g xmlns="http://www.w3.org/2000/svg"><path d="m354.499 48.52c-86.847 0-157.501 70.66-157.501 157.513v100.007c0 86.853 70.654 157.512 157.501 157.512 31.392 0 61.729-9.251 87.73-26.754 3.436-2.313 4.347-6.974 2.033-10.41-2.313-3.436-6.973-4.348-10.41-2.033-23.517 15.83-50.957 24.197-79.354 24.197-78.575 0-142.501-63.931-142.501-142.512v-100.007c0-78.582 63.926-142.513 142.501-142.513s142.502 63.931 142.502 142.513v100.007c-.001 37.706-14.644 73.276-41.23 100.16-2.912 2.944-2.886 7.693.06 10.606 2.944 2.91 7.692 2.887 10.606-.06 29.382-29.709 45.563-69.025 45.564-110.707v-100.006c0-86.853-70.654-157.513-157.501-157.513z"  data-original="#000000" style="" class=""/><path d="m81.331 65.914-27.924 28.64c-2.892 2.966-2.831 7.714.135 10.605 2.965 2.891 7.713 2.831 10.605-.135l27.925-28.641c26.476-27.164 72.927-8.679 72.927 29.671v299.997c0 23.435-19.065 42.5-42.499 42.5-23.435 0-42.5-19.065-42.5-42.5v-182.519l5.012-5.012c2.929-2.929 2.929-7.678-.001-10.606s-7.677-2.929-10.606.001l-5.846 5.847c-27.084 7.278-53.559-13.143-53.559-41.048 0-11.146 4.287-21.682 12.072-29.664l16.132-16.545c2.892-2.966 2.831-7.715-.135-10.606-2.966-2.893-7.715-2.833-10.605.135l-16.131 16.544c-10.532 10.8-16.333 25.054-16.333 40.136 0 34.81 30.59 61.526 65 57.019v176.318c0 31.706 25.794 57.5 57.5 57.5 31.705 0 57.499-25.794 57.499-57.5v-299.997c0-51.223-62.531-77.221-98.668-40.14z" data-original="#000000" style="" class=""/><path d="m298.801 109.288c0-4.143-3.357-7.5-7.5-7.5s-7.5 3.357-7.5 7.5v12c0 4.143 3.357 7.5 7.5 7.5s7.5-3.357 7.5-7.5z"  data-original="#000000" style="" class=""/><path d="m423.698 121.288v-12c0-4.143-3.357-7.5-7.5-7.5s-7.5 3.357-7.5 7.5v12c0 4.143 3.357 7.5 7.5 7.5s7.5-3.358 7.5-7.5z"  data-original="#000000" style="" class=""/><path d="m375.868 125.858c2.721-3.122 2.396-7.86-.727-10.582-3.123-2.721-7.86-2.396-10.582.727-5.727 6.571-15.899 6.565-21.62.001-2.721-3.124-7.459-3.448-10.581-.728-3.123 2.721-3.449 7.459-.728 10.581 11.679 13.403 32.519 13.445 44.238.001z"  data-original="#000000" style="" class=""/><path d="m354.499 363.543c31.706 0 57.501-25.796 57.501-57.503v-100.007c0-31.708-25.795-57.504-57.501-57.504s-57.5 25.796-57.5 57.504v100.007c0 31.707 25.794 57.503 57.5 57.503zm-42.5-157.51c0-23.437 19.065-42.504 42.5-42.504 23.436 0 42.501 19.067 42.501 42.504v100.007c0 23.437-19.065 42.503-42.501 42.503-23.435 0-42.5-19.066-42.5-42.503z"  data-original="#000000" style="" class=""/></g></g></svg>
