<svg width="170" height="33" viewBox="0 0 170 33" fill="none" xmlns="http://www.w3.org/2000/svg">
<path fill-rule="evenodd" clip-rule="evenodd" d="M62.8874 3.09427C62.4147 1.97716 61.9052 0.943875 61.2492 0.0251465C57.8069 1.42374 55.4236 3.51123 53.8797 6.18304C54.6461 6.87546 55.4126 7.57153 56.2155 8.26731C54.1638 9.40814 52.4403 10.9247 50.9353 12.6813C51.6285 13.3981 52.3217 14.1149 53.0516 14.8319C54.1146 14.1189 55.4326 13.8131 56.7497 13.7336C53.3069 15.1033 50.2288 16.8279 48.0627 19.5129C49.0488 20.1532 50.0351 20.7938 51.0578 21.4343C53.4392 20.3428 55.8188 19.801 58.1969 19.8925C53.4371 21.1048 49.1494 23.4442 45.3344 26.7995C46.1006 27.5895 46.8669 28.3795 47.6332 29.1661C50.895 27.3938 54.1914 26.2507 57.6308 26.4057V32.1641L62.6529 32.1672V26.4498C66.4586 26.4135 69.9601 27.3551 73.1393 29.1143C73.8734 28.2099 74.6073 27.3054 75.3415 26.3975C72.1266 24.2589 67.885 23.0876 62.6899 22.744C65.5094 22.0077 68.3642 21.7235 71.2172 22.125C71.7319 21.2168 72.2829 20.3085 72.834 19.3972C69.1432 17.5303 64.7179 16.7354 59.9987 16.4867C62.8175 15.9065 65.6724 15.4864 68.4889 15.8318C68.8938 14.8193 69.3354 13.8068 69.777 12.7941C66.6719 10.9317 63.2712 10.2765 59.6856 10.3454C61.6636 9.45503 63.641 8.75251 65.6172 8.51988C65.5834 7.455 65.5495 6.38675 65.5521 5.32188C63.724 4.90407 61.8954 4.73335 59.9933 4.68786C60.873 4.02324 61.8256 3.47698 62.8874 3.09427Z" fill="#0075BD"/>
<path d="M18.6648 9.60034H21.4067C21.7057 9.60034 21.9482 9.8428 21.9482 10.1418V18.0715L22.1654 17.8091L25.5019 10.4595C25.7732 9.88688 26.0445 9.60034 26.3431 9.60034H29.0298C29.3288 9.60034 29.5713 9.8428 29.5713 10.1418V25.6194C29.5713 25.9183 29.3288 26.1608 29.0298 26.1608H26.2608C25.9616 26.1608 25.7191 25.9183 25.7191 25.6194V17.3318L25.5019 17.5704L22.0297 25.6836C21.8942 25.9936 21.6499 26.1608 21.3244 26.1608H18.6648C18.3658 26.1608 18.1233 25.9183 18.1233 25.6194V10.1418C18.1233 9.8428 18.3658 9.60034 18.6648 9.60034Z" fill="#F8B132"/>
<path d="M36.5462 26.1606H33.8044C33.5053 26.1606 33.2629 25.9183 33.2629 25.6193V10.1417C33.2629 9.84266 33.5052 9.60034 33.8044 9.60034H39.8817C42.5131 9.60034 43.8762 10.6263 44.6899 12.6546C44.8799 13.1559 44.9883 13.7763 44.9883 14.5638C44.9883 16.6635 43.8052 18.2457 41.9703 19.0497C41.455 19.241 40.8583 19.3599 40.1529 19.4077C39.2628 19.4729 38.2602 19.5182 37.3501 19.5438C37.2037 19.5479 37.0876 19.668 37.0876 19.8143V25.6191C37.0877 25.9183 36.8452 26.1606 36.5462 26.1606ZM37.0877 12.9254V16.083C37.0877 16.2325 37.2089 16.3535 37.3585 16.3535H39.312C40.5326 16.2342 41.1292 15.6138 41.1292 14.4444C41.1292 13.2512 40.5599 12.6547 39.4476 12.6547H37.3585C37.2088 12.6547 37.0877 12.776 37.0877 12.9254Z" fill="#F8B132"/>
<path d="M11.0406 9.60034C10.7965 9.60034 10.5795 9.79142 10.3355 10.197L7.40567 15.4944C7.36677 15.5458 7.31368 15.5849 7.25653 15.6027C7.19951 15.5847 7.14628 15.5458 7.10738 15.4944L4.1773 10.197C3.93308 9.79128 3.71625 9.60034 3.47203 9.60034H0.541526C0.242254 9.60034 0 9.8428 0 10.1418V25.6194C0 25.9183 0.242254 26.1608 0.541526 26.1608H3.28328C3.58227 26.1608 3.8248 25.9183 3.8248 25.6194V16.592L4.04178 16.7114C4.66588 18.1668 5.31681 19.5984 5.99498 21.0065C6.18499 21.412 6.51965 21.8895 7.2429 21.8895C7.24754 21.8895 7.25189 21.8892 7.25639 21.8892C7.26102 21.8892 7.26537 21.8895 7.26987 21.8895C7.99326 21.8895 8.32792 21.4121 8.51779 21.0065C9.19596 19.5984 9.84703 18.1668 10.471 16.7114L10.6881 16.592V25.6194C10.6881 25.9183 10.9306 26.1608 11.2296 26.1608H13.9714C14.2704 26.1608 14.5129 25.9183 14.5129 25.6194V10.1418C14.5129 9.8428 14.2704 9.60034 13.9714 9.60034H11.0406Z" fill="#F8B132"/>
<path d="M113.935 26.1606H111.112C110.813 26.1606 110.57 25.9183 110.57 25.6193V10.1417C110.57 9.84266 110.813 9.60034 111.112 9.60034H117.271C119.902 9.60034 121.611 10.6263 122.425 12.6546C122.615 13.1559 122.723 13.7763 122.723 14.5638C122.723 16.6635 121.611 18.1668 119.359 19.0497C118.844 19.241 118.247 19.3599 117.542 19.4077C116.652 19.4729 115.649 19.5182 114.739 19.5438C114.593 19.5479 114.477 19.668 114.477 19.8143V25.6191C114.477 25.9183 114.234 26.1606 113.935 26.1606ZM114.477 12.9254V16.083C114.477 16.2325 114.598 16.3535 114.748 16.3535H116.701C117.922 16.2342 118.519 15.6138 118.519 14.4444C118.519 13.2512 117.949 12.6547 116.837 12.6547H114.748C114.598 12.6547 114.477 12.776 114.477 12.9254Z" fill="#F8B132"/>
<path d="M81.8865 9.60034H90.4425C90.7415 9.60034 90.9842 9.8428 90.9842 10.1418V22.8833C90.9842 23.0328 91.1054 23.1538 91.2548 23.1538H92.1787C92.4777 23.1538 92.7203 23.3964 92.7203 23.6952V28.6739C92.7203 28.9728 92.4779 29.2153 92.1787 29.2153H89.5725C89.2735 29.2153 89.0308 28.9728 89.0308 28.6739V26.8216C89.0308 26.5227 88.7886 26.2801 88.4893 26.2801H82.3025C82.0035 26.2801 81.761 26.5227 81.761 26.8216V28.6739C81.761 28.9728 81.5184 29.2153 81.2194 29.2153H78.6132C78.3141 29.2153 78.0715 28.9728 78.0715 28.6739V23.5608C78.0715 23.3362 78.2538 23.154 78.4787 23.154C78.4787 23.154 79.1294 23.154 79.3193 23.1064C79.4008 23.0825 79.5364 22.8679 79.7263 22.486C79.862 22.2237 79.9538 21.94 80.0247 21.6269C80.5026 19.5184 80.6773 18.2627 80.7029 17.9524C80.9634 14.7798 81.1369 12.3926 81.2725 10.8175C81.2958 10.5519 81.3241 10.2907 81.3488 10.0789C81.3802 9.80574 81.6115 9.60034 81.8865 9.60034ZM85.4375 12.6547C85.2925 12.6547 85.1733 12.7689 85.167 12.9136L85.1663 12.9283C85.0037 14.9566 84.7718 16.807 84.4735 18.8114C84.2838 20.1236 83.9852 21.4363 83.6327 22.7249V22.8679C83.6327 23.0349 83.6869 23.1064 83.7955 23.1064H86.4549C86.7539 23.1064 86.9965 22.8642 86.9965 22.565V12.9255C86.9965 12.7759 86.8751 12.6547 86.7256 12.6547H85.4375Z" fill="#F8B132"/>
<path d="M106.662 10.1418V12.0658C106.662 12.3648 106.42 12.6073 106.12 12.6073H100.801C100.502 12.6073 100.26 12.8496 100.26 13.1486V15.3827C100.26 15.6817 100.502 15.9242 100.801 15.9242H104.601C104.9 15.9242 105.143 16.1664 105.143 16.4655V18.4371C105.143 18.7361 104.9 18.9784 104.601 18.9784H100.801C100.502 18.9784 100.26 19.2209 100.26 19.5198V22.6126C100.26 22.9117 100.502 23.154 100.801 23.154H106.419C106.718 23.154 106.96 23.3966 106.96 23.6955V25.6196C106.96 25.9184 106.718 26.1609 106.419 26.1609H96.8953C96.5962 26.1609 96.3538 25.9184 96.3538 25.6196V10.1418C96.3538 9.8428 96.5961 9.60034 96.8953 9.60034H106.121C106.42 9.60034 106.662 9.84266 106.662 10.1418Z" fill="#F8B132"/>
<path d="M136.642 10.1418V12.0658C136.642 12.3648 136.4 12.6073 136.1 12.6073H130.781C130.482 12.6073 130.239 12.8496 130.239 13.1486V15.3827C130.239 15.6817 130.482 15.9242 130.781 15.9242H134.581C134.88 15.9242 135.123 16.1664 135.123 16.4655V18.4371C135.123 18.7361 134.88 18.9784 134.581 18.9784H130.781C130.482 18.9784 130.239 19.2209 130.239 19.5198V22.6126C130.239 22.9117 130.482 23.154 130.781 23.154H136.398C136.698 23.154 136.94 23.3966 136.94 23.6955V25.6196C136.94 25.9184 136.698 26.1609 136.398 26.1609H126.875C126.576 26.1609 126.334 25.9184 126.334 25.6196V10.1418C126.334 9.8428 126.576 9.60034 126.875 9.60034H136.1C136.4 9.60034 136.642 9.84266 136.642 10.1418Z" fill="#F8B132"/>
<path d="M152.541 23.5839C151.754 25.3018 150.235 26.1608 147.929 26.1608H141.092C140.793 26.1608 140.551 25.9184 140.551 25.6194V10.1417C140.551 9.84266 140.793 9.60034 141.092 9.60034H147.387C147.468 9.60034 147.767 9.64821 148.228 9.71982C148.635 9.79127 149.096 9.91047 149.611 10.0778C151.293 10.6263 152.134 11.8673 152.134 13.7763C152.134 15.0408 151.429 16.1624 150.045 17.0931C149.991 17.1172 149.937 17.1647 149.883 17.2126C149.91 17.2362 150.127 17.3555 150.588 17.5704C150.723 17.6419 150.859 17.7138 151.022 17.8091C151.375 18.0715 151.619 18.2384 151.7 18.31C152.541 19.0497 152.975 20.1233 152.975 21.5076C152.975 22.2713 152.84 22.9633 152.541 23.5839ZM144.457 15.335C144.457 15.6339 144.7 15.8763 144.999 15.8763H145.325C146.085 15.8763 146.627 15.8286 146.953 15.7331C147.712 15.5183 148.092 14.9935 148.092 14.1583C148.092 13.2277 147.577 12.7266 146.546 12.6549C146.383 12.6311 146.003 12.6311 145.38 12.6311H144.999C144.7 12.6311 144.457 12.8735 144.457 13.1726V15.335ZM144.457 22.589C144.457 22.8879 144.7 23.1304 144.999 23.1304H145.434C146.085 23.1304 146.492 23.1304 146.682 23.1064C148.092 23.0348 148.798 22.3668 148.798 21.0781C148.798 20.1476 148.282 19.5269 147.251 19.1692C146.953 19.0736 146.356 19.026 145.434 19.026H144.999C144.7 19.026 144.457 19.2685 144.457 19.5674V22.589Z" fill="#F8B132"/>
<path d="M169.986 25.8026L165.646 10.1969C165.537 9.79128 165.348 9.60034 165.076 9.60034H163.293H161.51C161.238 9.60034 161.048 9.79128 160.94 10.1969L156.599 25.8026C156.545 26.0413 156.653 26.1608 156.897 26.1608H159.963C160.207 26.1608 160.397 25.9936 160.506 25.6836C160.75 24.8485 160.94 24.2518 161.075 23.846C161.156 23.5837 161.265 23.4644 161.347 23.4644H165.239C165.32 23.4644 165.429 23.5837 165.51 23.846C165.646 24.2518 165.836 24.8485 166.08 25.6836C166.189 25.9936 166.379 26.1608 166.623 26.1608H169.688C169.932 26.1609 170.041 26.0413 169.986 25.8026ZM162.106 20.1476L163.293 15.6392L164.48 20.1476H162.106Z" fill="#F8B132"/>
</svg>
