<?xml version="1.0" encoding="iso-8859-1"?>
<svg height="20px" width="20px" version="1.1" id="Layer_1" xmlns="http://www.w3.org/2000/svg" xmlns:xlink="http://www.w3.org/1999/xlink" x="0px" y="0px"
	 viewBox="0 0 512 512" style="enable-background:new 0 0 512 512;" xml:space="preserve">
<g>
	<g>
		<path d="M447.327,38.482H309.49V10.199C309.49,4.566,304.923,0,299.291,0h-86.584c-5.632,0-10.199,4.566-10.199,10.199v28.282
			H64.672c-23.46,0-42.546,19.086-42.546,42.546v227.767c0,23.459,19.086,42.546,42.546,42.546h137.837v150.461
			c0,5.633,4.567,10.199,10.199,10.199h86.584c5.632,0,10.199-4.566,10.199-10.199V351.34h137.837
			c23.46,0,42.546-19.086,42.546-42.546V81.028C489.873,57.567,470.788,38.482,447.327,38.482z M222.907,20.398h66.186v18.083
			h-66.186V20.398z M289.092,491.602h-66.186V351.34h66.186V491.602z M469.475,308.794c0,12.213-9.935,22.148-22.148,22.148H64.672
			c-12.213,0-22.148-9.935-22.148-22.148V81.028c0-12.213,9.935-22.148,22.148-22.148h382.656c12.213,0,22.148,9.935,22.148,22.148
			V308.794z"/>
	</g>
</g>
<g>
	<g>
		<path d="M271.298,375.331c-5.632,0-10.199,4.566-10.199,10.199v4.08c0,5.633,4.567,10.199,10.199,10.199
			c5.632,0,10.199-4.566,10.199-10.199v-4.08C281.498,379.897,276.93,375.331,271.298,375.331z"/>
	</g>
</g>
<g>
	<g>
		<path d="M271.298,408.988c-5.632,0-10.199,4.566-10.199,10.199v54.056c0,5.633,4.567,10.199,10.199,10.199
			c5.632,0,10.199-4.566,10.199-10.199v-54.056C281.498,413.554,276.93,408.988,271.298,408.988z"/>
	</g>
</g>
<g>
	<g>
		<path d="M208.673,104.025h-35.831c-3.513,0-7.022,1.651-7.022,4.956h0.001v65.57c0,3.304,4.026,4.956,8.053,4.956
			s8.053-1.652,8.053-4.956v-26.641h15.594c3.407,0,4.853-3.305,4.853-6.092c0-3.305-1.755-6.299-4.853-6.299h-15.594v-17.451
			h26.745c3.098,0,4.853-3.304,4.853-7.124C213.526,107.638,212.08,104.025,208.673,104.025z"/>
	</g>
</g>
<g>
	<g>
		<path d="M251.008,104.024c-14.251,0-25.299,6.608-25.299,24.369v27.363c0,17.761,11.048,24.369,25.299,24.369
			c14.248,0,25.4-6.608,25.4-24.369v-27.363C276.408,110.632,265.257,104.024,251.008,104.024z M260.3,128.393v27.363
			c0,7.125-3.512,10.326-9.292,10.326c-5.783,0-9.191-3.201-9.191-10.326v-27.363c0-7.125,3.409-10.327,9.191-10.327
			C256.789,118.066,260.301,121.268,260.3,128.393L260.3,128.393z"/>
	</g>
</g>
<g>
	<g>
		<path d="M346.826,169.903l-12.598-22.821c7.227-2.787,12.494-9.397,12.494-20.961c0-16.832-11.255-22.098-25.402-22.098h-21.374
			c-2.993,0-4.956,2.271-4.956,4.853h0v65.674c0,3.304,4.026,4.956,8.053,4.956c4.028,0,8.053-1.652,8.053-4.956v-24.885h6.815
			l14.147,27.466c1.136,2.168,3.099,2.995,5.164,2.995c4.749,0,10.12-4.337,10.12-8.364
			C347.343,171.246,347.238,170.523,346.826,169.903z M321.319,137.273h-10.223v-19.206v-0.001h10.223
			c5.783,0,9.293,2.375,9.293,9.604C330.612,134.899,327.102,137.273,321.319,137.273z"/>
	</g>
</g>
<g>
	<g>
		<path d="M151.368,226.243c0-3.201,2.995-6.196,10.327-6.196c8.466,0,10.428,3.924,14.145,3.924c4.544,0,6.402-5.68,6.402-8.467
			c0-8.054-15.075-9.086-20.547-9.086c-12.908,0-26.434,5.885-26.434,21.375c0,24.162,32.733,21.995,32.733,34.489
			c0,4.956-5.267,6.814-10.016,6.816c-9.604,0-12.701-7.641-17.556-7.641c-3.923,0-7.02,5.163-7.02,8.673
			c0,6.815,11.358,13.423,24.884,13.423c14.972,0,25.815-8.054,25.815-22.924C184.101,234.606,151.368,236.568,151.368,226.243z"/>
	</g>
</g>
<g>
	<g>
		<path d="M254.932,274.774l-19.309-62.987c-1.135-3.615-5.783-5.37-10.532-5.37c-4.751,0-9.399,1.755-10.534,5.37l-19.205,62.987
			c-0.103,0.414-0.207,0.826-0.207,1.136c0,3.821,5.886,6.608,10.328,6.608c2.581,0,4.646-0.826,5.265-2.995l3.512-12.907h21.786
			l3.512,12.907c0.619,2.168,2.683,2.995,5.265,2.995c4.441,0,10.327-2.787,10.327-6.608
			C255.139,275.6,255.036,275.187,254.932,274.774z M217.551,254.225l7.54-27.674l7.538,27.674H217.551z"/>
	</g>
</g>
<g>
	<g>
		<path d="M309.032,268.475h-23.542v-56.585c0-3.408-4.028-4.853-8.053-4.853c-4.028,0-8.055,1.445-8.055,4.853v65.673
			c0,3.304,3.513,4.956,7.022,4.956h32.628c3.097,0,4.648-3.511,4.648-7.021C313.68,271.985,312.13,268.475,309.032,268.475z"/>
	</g>
</g>
<g>
	<g>
		<path d="M372.225,268.475h-27.674v-17.554h15.489c3.409,0,4.853-3.305,4.853-6.092c0-3.305-1.755-6.299-4.853-6.299h-15.489
			v-17.451h27.674c3.097,0,4.853-3.304,4.853-7.124c0-3.305-1.446-6.918-4.853-6.918h-36.761c-3.511,0-7.022,1.651-7.022,4.956
			v65.57c0,3.304,3.513,4.956,7.022,4.956h36.761c3.406,0,4.853-3.614,4.853-6.918C377.077,271.779,375.322,268.475,372.225,268.475
			z"/>
	</g>
</g>
<g>
</g>
<g>
</g>
<g>
</g>
<g>
</g>
<g>
</g>
<g>
</g>
<g>
</g>
<g>
</g>
<g>
</g>
<g>
</g>
<g>
</g>
<g>
</g>
<g>
</g>
<g>
</g>
<g>
</g>
</svg>
